HIERARCHY
ROOT Hips
{
	OFFSET 0.000000 0.000000 0.000000
	CHANNELS 6 Xposition Yposition Zposition Zrotation Yrotation Xrotation 
	JOINT LHipJoint
	{
		OFFSET 0.000000 0.000000 0.000000
		CHANNELS 3 Zrotation Yrotation Xrotation
		JOINT LeftUpLeg
		{
			OFFSET 1.363060 -1.794630 0.839290
			CHANNELS 3 Zrotation Yrotation Xrotation
			JOINT LeftLeg
			{
				OFFSET 2.448110 -6.726130 0.000000
				CHANNELS 3 Zrotation Yrotation Xrotation
				JOINT LeftFoot
				{
					OFFSET 2.562200 -7.039590 0.000000
					CHANNELS 3 Zrotation Yrotation Xrotation
					JOINT LeftToeBase
					{
						OFFSET 0.157640 -0.433110 2.322550
						CHANNELS 3 Zrotation Yrotation Xrotation
						End Site
						{
							OFFSET 0.000000 0.000000 0.000000
						}
					}
				}
			}
		}
	}
	JOINT RHipJoint
	{
		OFFSET 0.000000 0.000000 0.000000
		CHANNELS 3 Zrotation Yrotation Xrotation
		JOINT RightUpLeg
		{
			OFFSET -1.305520 -1.794630 0.839290
			CHANNELS 3 Zrotation Yrotation Xrotation
			JOINT RightLeg
			{
				OFFSET -2.542530 -6.985550 0.000000
				CHANNELS 3 Zrotation Yrotation Xrotation
				JOINT RightFoot
				{
					OFFSET -2.568260 -7.056230 0.000000
					CHANNELS 3 Zrotation Yrotation Xrotation
					JOINT RightToeBase
					{
						OFFSET -0.164730 -0.452590 2.363150
						CHANNELS 3 Zrotation Yrotation Xrotation
						End Site
						{
							OFFSET 0.000000 0.000000 0.000000
						}
					}
				}
			}
		}
	}
	JOINT LowerBack
	{
		OFFSET 0.000000 0.000000 0.000000
		CHANNELS 3 Zrotation Yrotation Xrotation
		JOINT Spine
		{
			OFFSET 0.028270 2.035590 -0.193380
			CHANNELS 3 Zrotation Yrotation Xrotation
			JOINT Spine1
			{
				OFFSET 0.056720 2.048850 -0.042750
				CHANNELS 3 Zrotation Yrotation Xrotation
				JOINT Neck
				{
					OFFSET 0.000000 0.000000 0.000000
					CHANNELS 3 Zrotation Yrotation Xrotation
					JOINT Neck1
					{
						OFFSET -0.054170 1.746240 0.172020
						CHANNELS 3 Zrotation Yrotation Xrotation
						JOINT Head
						{
							OFFSET 0.104070 1.761360 -0.123970
							CHANNELS 3 Zrotation Yrotation Xrotation
							End Site
							{
								OFFSET 0.000000 0.000000 0.000000
							}
						}
					}
				}
				JOINT LeftShoulder
				{
					OFFSET 0.000000 0.000000 0.000000
					CHANNELS 3 Zrotation Yrotation Xrotation
					JOINT LeftArm
					{
						OFFSET 3.362410 1.200890 -0.311210
						CHANNELS 3 Zrotation Yrotation Xrotation
						JOINT LeftForeArm
						{
							OFFSET 4.983000 -0.000000 -0.000000
							CHANNELS 3 Zrotation Yrotation Xrotation
							JOINT LeftHand
							{
								OFFSET 3.483560 -0.000000 -0.000000
								CHANNELS 3 Zrotation Yrotation Xrotation
								JOINT LeftFingerBase
								{
									OFFSET 0.000000 0.000000 0.000000
									CHANNELS 3 Zrotation Yrotation Xrotation
									JOINT LeftHandIndex1
									{
										OFFSET 0.715260 -0.000000 -0.000000
										CHANNELS 3 Zrotation Yrotation Xrotation
										End Site
										{
											OFFSET 0.000000 0.000000 0.000000
										}
									}
								}
								JOINT LThumb
								{
									OFFSET 0.000000 0.000000 0.000000
									CHANNELS 3 Zrotation Yrotation Xrotation
									End Site
									{
										OFFSET 0.000000 0.000000 0.000000
									}
								}
							}
						}
					}
				}
				JOINT RightShoulder
				{
					OFFSET 0.000000 0.000000 0.000000
					CHANNELS 3 Zrotation Yrotation Xrotation
					JOINT RightArm
					{
						OFFSET -3.136600 1.374050 -0.404650
						CHANNELS 3 Zrotation Yrotation Xrotation
						JOINT RightForeArm
						{
							OFFSET -5.241900 -0.000000 -0.000000
							CHANNELS 3 Zrotation Yrotation Xrotation
							JOINT RightHand
							{
								OFFSET -3.444170 -0.000000 -0.000000
								CHANNELS 3 Zrotation Yrotation Xrotation
								JOINT RightFingerBase
								{
									OFFSET 0.000000 0.000000 0.000000
									CHANNELS 3 Zrotation Yrotation Xrotation
									JOINT RightHandIndex1
									{
										OFFSET -0.622530 -0.000000 -0.000000
										CHANNELS 3 Zrotation Yrotation Xrotation
										End Site
										{
											OFFSET 0.000000 0.000000 0.000000
										}
									}
								}
								JOINT RThumb
								{
									OFFSET 0.000000 0.000000 0.000000
									CHANNELS 3 Zrotation Yrotation Xrotation
									End Site
									{
										OFFSET 0.000000 0.000000 0.000000
									}
								}
							}
						}
					}
				}
			}
		}
	}
}
MOTION
Frames: 11
Frame Time: 0.008333
-1.180347 15.407147 -0.410269 11.914321 62.396320 31.683149 -12.474385 2.427793 -1.926078 1.958921 14.644202 -36.147013 4.334795 5.861561 99.897380 2.551815 14.435259 5.416180 2.696700 -0.000000 -31.799100 9.741755 -1.209886 4.413752 14.607768 10.608558 -39.721445 1.777790 -3.336357 61.325396 -2.532626 2.357837 -41.625141 -179.161900 -0.000000 -15.773700 -0.405943 -3.622201 -4.654270 -0.559487 -3.742239 -3.561297 -6.122343 -3.811882 0.536244 6.563608 -6.583988 -8.113314 -2.517886 -0.178841 -0.147073 0.000000 0.000000 0.000000 1.860018 8.984514 1.101653 -32.998256 -17.182738 -0.258878 -179.724828 -81.252358 179.867957 14.298213 5.553035 0.664914 -0.380719 0.408861 -0.000000 0.000000 0.000000 0.000000 0.000000 0.000000 0.000000 5.896441 -3.234388 1.830300 75.777903 2.564437 -10.895368 1.201043 39.352734 -0.052990 -19.731196 0.062178 -0.038573 0.175399 -0.160542 0.000000 0.000000 0.000000 0.000000 0.000000 0.000000 0.000000 
-1.023664 15.475351 -0.375186 11.763417 61.599733 31.826082 -12.323397 2.184108 -1.835225 1.501613 13.883853 -37.688678 4.333374 5.813080 99.949089 2.525928 14.281451 4.923157 2.572900 0.000000 -30.512600 9.865194 -1.209130 4.414170 13.852321 10.695123 -38.735409 1.855236 -3.208508 59.943051 -2.392580 2.844238 -41.061804 -179.431400 0.000001 -13.494400 -0.925300 -3.425907 -4.734723 -0.629838 -3.497657 -3.637528 -5.917503 -3.584244 0.318926 6.560571 -5.771032 -7.880900 -2.408970 -0.172829 -0.090886 0.000000 0.000000 0.000000 1.145067 8.997751 1.463817 -36.714588 -15.332829 1.884788 -179.785363 -85.794864 179.877505 14.073919 6.342519 0.760607 -0.369966 0.359556 -0.000000 0.000000 0.000000 0.000000 0.000000 0.000000 0.000000 5.362043 -2.098045 1.555814 74.561101 4.826793 -9.320529 0.987918 43.000373 -0.061424 -19.647693 -0.356193 0.030889 0.183204 -0.182696 0.000000 0.000000 0.000000 0.000000 0.000000 0.000000 0.000000 
-0.861695 15.557048 -0.339448 11.558185 60.780978 31.937646 -12.163676 1.947237 -1.726237 1.018889 13.154847 -39.207973 4.294526 5.745627 99.760415 2.502889 14.122573 4.630269 2.489300 0.000000 -29.388100 9.976713 -1.212325 4.444717 13.051121 10.846469 -37.668034 1.926912 -3.055879 58.301668 -2.241627 3.273838 -40.284526 -179.669800 -0.000000 -10.775800 -1.408479 -3.206086 -4.859033 -0.693644 -3.233493 -3.714407 -5.694545 -3.335432 0.142740 6.523177 -5.062382 -7.704563 -2.281322 -0.164936 -0.048636 0.000000 0.000000 0.000000 0.452061 9.132408 1.796588 -40.200788 -13.503592 3.595389 0.052547 -89.445556 -0.113435 13.917194 6.842072 0.819439 -0.357636 0.318107 -0.000000 0.000000 0.000000 0.000000 0.000000 0.000000 0.000000 4.730318 -1.094114 1.278296 73.133497 7.183254 -8.301649 0.777907 46.502878 -0.070315 -19.532433 -0.803414 0.104438 0.190046 -0.206070 0.000000 0.000000 0.000000 0.000000 0.000000 0.000000 0.000000 
-0.694120 15.652603 -0.303047 11.310471 59.949552 32.014869 -11.997212 1.720430 -1.600167 0.515789 12.458914 -40.678261 4.217094 5.659304 99.307797 2.485955 13.984843 4.544427 2.452200 0.000000 -28.515100 10.075261 -1.222297 4.495349 12.219900 11.030093 -36.493354 1.991494 -2.878017 56.382648 -2.076568 3.653141 -39.266399 -179.877900 -0.000000 -7.627401 -1.846603 -2.963463 -5.013681 -0.749747 -2.951034 -3.788849 -5.459535 -3.066126 0.007104 6.443420 -4.460805 -7.580517 -2.141580 -0.155707 -0.019295 0.000000 0.000000 0.000000 -0.230900 9.373219 2.092739 -43.458099 -11.721464 4.922612 -0.189477 -84.536862 -0.104417 13.835178 7.000520 0.837831 -0.344197 0.283933 -0.000000 0.000000 0.000000 0.000000 0.000000 0.000000 0.000000 4.014662 -0.229988 1.004427 71.509958 9.612663 -7.799803 0.574162 49.813428 -0.079642 -19.439025 -1.303335 0.186270 0.195844 -0.229902 0.000000 0.000000 0.000000 0.000000 0.000000 0.000000 0.000000 
-0.520643 15.762201 -0.265724 11.034849 59.117138 32.058780 -11.825506 1.506680 -1.457815 -0.003007 11.793642 -42.071838 4.099987 5.553414 98.563991 2.478145 13.894714 4.658911 2.465100 0.000000 -27.971800 10.160771 -1.241246 4.555799 11.374606 11.214005 -35.188963 2.049567 -2.675522 54.174379 -1.895441 4.003314 -38.005904 179.936900 0.000000 -4.463600 -2.235969 -2.700829 -5.185789 -0.797725 -2.653235 -3.858589 -5.217671 -2.779109 -0.090855 6.318772 -3.961326 -7.503649 -1.995859 -0.145641 -0.001467 0.000000 0.000000 0.000000 -0.911084 9.710499 2.347893 -46.496795 -10.002775 5.917036 -0.488579 -79.534739 -0.095103 13.824334 6.818303 0.817196 -0.329850 0.255439 -0.000000 0.000000 0.000000 0.000000 0.000000 0.000000 0.000000 3.234055 0.495790 0.737541 69.699356 12.076304 -7.775378 0.379126 52.911578 -0.089456 -19.420014 -1.855992 0.277581 0.200775 -0.253623 0.000000 0.000000 0.000000 0.000000 0.000000 0.000000 0.000000 
-0.340990 15.885601 -0.227048 10.747289 58.296830 32.074412 -11.650030 1.308805 -1.300444 -0.533840 11.153759 -43.362275 3.944342 5.427523 97.511831 2.481892 13.876459 4.951910 2.529300 0.000000 -27.799400 10.234823 -1.271104 4.617725 10.527388 11.371767 -33.739775 2.101002 -2.450044 51.672116 -1.694080 4.353670 -36.491955 179.764500 0.000000 -1.597400 -2.577578 -2.422369 -5.364887 -0.837989 -2.344147 -3.922506 -4.973678 -2.478647 -0.156143 6.151003 -3.554460 -7.467553 -1.849412 -0.135176 0.006626 0.000000 0.000000 0.000000 -1.590306 10.134104 2.560314 -49.332151 -8.348570 6.619956 -0.822552 -74.486836 -0.085328 13.871686 6.337144 0.762044 -0.314586 0.230694 -0.000000 0.000000 0.000000 0.000000 0.000000 0.000000 0.000000 2.409161 1.090585 0.478177 67.710882 14.524602 -8.192430 0.195210 55.796379 -0.099864 -19.517802 -2.441083 0.376673 0.205145 -0.276942 -0.000000 0.000000 0.000000 0.000000 0.000000 0.000000 0.000000 
-0.155033 16.022197 -0.186511 10.467289 57.500146 32.072966 -11.471917 1.129647 -1.128846 -1.075276 10.530209 -44.526346 3.752547 5.281156 96.138197 2.498484 13.948270 5.388732 2.644000 -0.000000 -27.993500 10.301592 -1.314527 4.675419 9.684027 11.481428 -32.140877 2.141379 -2.204537 48.873050 -1.462775 4.730795 -34.655343 -0.402700 -0.000001 -1.235700 -2.876913 -2.132975 -5.544801 -0.871823 -2.028282 -3.980826 -4.731892 -2.169764 -0.195307 5.944795 -3.226285 -7.464635 -1.706520 -0.124700 0.007118 0.000000 0.000000 0.000000 -2.265209 10.633742 2.731199 -51.980083 -6.749986 7.060253 -1.170972 -69.433902 -0.075110 13.956362 5.626152 0.679478 -0.298304 0.207941 0.000000 0.000000 0.000000 0.000000 0.000000 0.000000 0.000000 1.559524 1.568154 0.224365 65.556601 16.900903 -9.020289 0.025400 58.482035 -0.110984 -19.757070 -3.023490 0.479749 0.209256 -0.299851 -0.000000 0.000000 0.000000 0.000000 0.000000 0.000000 0.000000 
0.037424 16.170900 -0.143625 10.207738 56.737414 32.064239 -11.292812 0.971427 -0.943549 -1.622934 9.913921 -45.546100 3.529060 5.114651 94.439100 2.527470 14.116560 5.924381 2.805300 -0.000000 -28.498300 10.365436 -1.374148 4.726118 8.849309 11.530790 -30.400098 2.165949 -1.943909 45.788232 -1.196009 5.154699 -32.439653 -0.563500 -0.000001 -4.137300 -3.139905 -1.837110 -5.723590 -0.900565 -1.709830 -4.034697 -4.496413 -1.857281 -0.214825 5.706749 -2.962557 -7.487131 -1.570242 -0.114519 0.002205 0.000000 0.000000 0.000000 -2.929958 11.201784 2.864418 -54.455268 -5.195738 7.254805 -1.516180 -64.410304 -0.064632 14.052359 4.769296 0.578102 -0.280933 0.185881 0.000000 0.000000 0.000000 0.000000 0.000000 0.000000 0.000000 0.701325 1.944815 -0.027929 63.253544 19.150526 -10.229385 -0.126305 60.991905 -0.122896 -20.141068 -3.562190 0.581814 0.213329 -0.322542 0.000000 0.000000 0.000000 0.000000 0.000000 0.000000 0.000000 
0.236352 16.330232 -0.097935 9.976131 56.016030 32.056091 -11.114769 0.835646 -0.744700 -2.169184 9.296931 -46.410319 3.279898 4.929293 92.418454 2.566378 14.372471 6.508126 3.005300 -0.000000 -29.213900 10.430531 -1.452707 4.769551 8.028235 11.516639 -28.538321 2.169561 -1.675345 42.444401 -0.893692 5.633074 -29.799098 -0.705300 0.000000 -7.140100 -3.372097 -1.538495 -5.903230 -0.925379 -1.392359 -4.085771 -4.270820 -1.545397 -0.219865 5.444785 -2.751707 -7.528221 -1.442451 -0.104852 -0.006183 0.000000 0.000000 0.000000 -3.577263 11.834836 2.966031 -56.767933 -3.677218 7.211103 -1.843977 -59.446512 -0.054204 14.130716 3.855617 0.467717 -0.262532 0.163788 0.000000 0.000000 0.000000 0.000000 0.000000 0.000000 0.000000 -0.152219 2.236557 -0.283886 60.822604 21.229949 -11.786710 -0.255023 63.350663 -0.135593 -20.652360 -4.015958 0.676172 0.217449 -0.345317 0.000000 0.000000 0.000000 0.000000 0.000000 0.000000 0.000000 
0.441684 16.498289 -0.049198 9.777246 55.338873 32.057525 -10.939919 0.723645 -0.532037 -2.707679 8.671636 -47.115333 3.012193 4.727285 90.089200 2.611095 14.693133 7.089601 3.232201 0.000000 -30.015900 10.502019 -1.554404 4.807368 7.221717 11.440051 -26.589128 2.143820 -1.409007 38.875606 -0.558611 6.153658 -26.647716 -0.801700 0.000000 -10.814700 -3.580070 -1.239764 -6.089159 -0.947506 -1.078270 -4.136360 -4.057720 -1.237109 -0.215285 5.166927 -2.584080 -7.580756 -1.323920 -0.095858 -0.016030 0.000000 0.000000 0.000000 -4.200353 12.524661 3.043424 -58.923414 -2.179149 6.926528 -2.143543 -54.577546 -0.044205 14.162779 2.971302 0.359029 -0.243312 0.141487 0.000000 0.000000 0.000000 0.000000 0.000000 0.000000 0.000000 -0.991642 2.459679 -0.547855 58.286997 23.107636 -13.656660 -0.355555 65.581578 -0.148935 -21.253176 -4.349673 0.755030 0.221510 -0.368487 0.000000 0.000000 0.000000 0.000000 0.000000 0.000000 0.000000 
0.653118 16.672947 0.002732 9.609649 54.706167 32.072949 -10.770620 0.635890 -0.305023 -3.228733 8.033431 -47.664105 2.733436 4.511602 87.471347 2.655891 15.039620 7.626192 3.469200 -0.000001 -30.784100 10.583191 -1.682793 4.841639 6.433884 11.307489 -24.595330 2.083739 -1.157304 35.135272 -0.205117 6.690296 -22.948033 -0.816500 0.000000 -15.391600 -3.768665 -0.942419 -6.288154 -0.967679 -0.768920 -4.188633 -3.858799 -0.934241 -0.204408 4.881284 -2.453837 -7.638943 -1.214484 -0.087611 -0.025739 0.000000 0.000000 0.000000 -4.793552 13.262317 3.104262 -60.921238 -0.686278 6.396077 -2.407809 -49.842971 -0.035034 14.124243 2.193581 0.262340 -0.223689 0.119264 0.000000 0.000000 0.000000 0.000000 0.000000 0.000000 0.000000 -1.809458 2.628194 -0.822569 55.668317 24.769832 -15.798744 -0.423490 67.700965 -0.162650 -21.892893 -4.538819 0.810391 0.225249 -0.392273 0.000000 0.000000 0.000000 0.000000 0.000000 0.000000 0.000000 
